<svg width="31" height="27" viewBox="0 0 31 27" fill="none" xmlns="http://www.w3.org/2000/svg">
<path fill-rule="evenodd" clip-rule="evenodd" d="M12.201 16.8571C16.8386 16.8571 20.8024 17.4423 20.8024 19.7799C20.8024 22.1176 16.865 22.7196 12.201 22.7196C7.56212 22.7196 3.59961 22.1396 3.59961 19.8009C3.59961 17.4621 7.53572 16.8571 12.201 16.8571Z" stroke="#7B6F72" stroke-width="1.2" stroke-linecap="round" stroke-linejoin="round"/>
<path fill-rule="evenodd" clip-rule="evenodd" d="M12.2008 13.5207C9.15604 13.5207 6.68701 11.4657 6.68701 8.93015C6.68701 6.39462 9.15604 4.3396 12.2008 4.3396C15.2444 4.3396 17.7134 6.39462 17.7134 8.93015C17.7247 11.4563 15.2733 13.5113 12.2398 13.5207H12.2008Z" stroke="#7B6F72" stroke-width="1.2" stroke-linecap="round" stroke-linejoin="round"/>
<path d="M20.8647 12.3291C22.8774 12.0936 24.4275 10.6552 24.4313 8.91424C24.4313 7.19841 22.929 5.77466 20.959 5.50562" stroke="#7B6F72" stroke-width="1.2" stroke-linecap="round" stroke-linejoin="round"/>
<path d="M23.52 16.3602C25.4698 16.6021 26.8313 17.1716 26.8313 18.3441C26.8313 19.1512 26.1902 19.6746 25.1543 20.0023" stroke="#7B6F72" stroke-width="1.2" stroke-linecap="round" stroke-linejoin="round"/>
</svg>
