<svg width="31" height="18" viewBox="0 0 31 18" fill="none" xmlns="http://www.w3.org/2000/svg">
<g clip-path="url(#clip0_101_1433)">
<path d="M2.64174 0.5H27.4154C28.0704 0.5 28.6403 0.657288 29.0296 0.885549C29.4311 1.12099 29.5571 1.37287 29.5571 1.54907V16.0759C29.5571 16.2521 29.4311 16.504 29.0296 16.7395C28.6403 16.9677 28.0704 17.125 27.4154 17.125H2.64174C1.98679 17.125 1.41682 16.9677 1.02755 16.7395C0.626038 16.504 0.5 16.2521 0.5 16.0759V1.54907C0.5 1.37287 0.626038 1.12099 1.02755 0.885549C1.41682 0.657288 1.98679 0.5 2.64174 0.5ZM27.4154 17.0923C27.7315 17.0923 28.0421 17.0179 28.2907 16.8722C28.5269 16.7336 28.796 16.4692 28.796 16.0759V1.54907C28.796 1.15582 28.5269 0.891355 28.2907 0.752827C28.0421 0.607094 27.7315 0.532715 27.4154 0.532715H2.64174C2.32562 0.532715 2.01501 0.607094 1.76648 0.752827C1.53024 0.891356 1.26116 1.15582 1.26116 1.54907V16.0759C1.26116 16.4692 1.53024 16.7336 1.76648 16.8722C2.01501 17.0179 2.32562 17.0923 2.64174 17.0923H27.4154Z" stroke="#7B6F72"/>
<path d="M5.1351 4.54986C8.00289 3.30045 11.422 2.63428 15.0288 2.63428C18.6356 2.63428 22.0546 3.30043 24.9223 4.5498L20.4042 8.07444L20.4042 8.07447C20.3574 8.11094 20.2495 8.1581 20.0904 8.1714C19.9356 8.18432 19.7864 8.16027 19.681 8.11388L19.6809 8.11383C18.3151 7.51325 16.706 7.20179 15.0288 7.20179C13.3514 7.20179 11.7425 7.51324 10.3768 8.11381L5.1351 4.54986ZM5.1351 4.54986L9.65307 8.07437C9.65309 8.07439 9.65312 8.07441 9.65315 8.07444C9.71158 8.11995 9.85466 8.17481 10.0503 8.17481C10.1771 8.17481 10.2921 8.15101 10.3767 8.11383L5.1351 4.54986ZM19.6389 7.9258L19.8981 8.01883L20.1153 7.84941L23.7154 5.04091L24.4086 4.5001L23.5894 4.18081C21.037 3.186 18.0956 2.66699 15.0288 2.66699C11.9619 2.66699 9.0206 3.186 6.46817 4.18081L5.64897 4.5001L6.3422 5.04091L9.94226 7.84941L10.1594 8.01883L10.4187 7.9258C11.5567 7.51743 12.8322 7.26757 14.1759 7.19305L14.6482 7.16686V6.69382V5.19276C14.6515 5.1907 14.6551 5.18851 14.659 5.18619C14.729 5.14513 14.8586 5.10365 15.0288 5.10365C15.1989 5.10365 15.3285 5.14513 15.3986 5.18619C15.4025 5.18851 15.4061 5.1907 15.4094 5.19276V6.69382V7.16686L15.8817 7.19305C17.2253 7.26757 18.5009 7.51743 19.6389 7.9258ZM14.6197 5.21474C14.6194 5.21469 14.6206 5.21314 14.6239 5.21022C14.6215 5.21333 14.6199 5.21479 14.6197 5.21474ZM15.4379 5.21474C15.4377 5.21479 15.436 5.21333 15.4336 5.21022C15.4369 5.21314 15.4382 5.21469 15.4379 5.21474Z" stroke="#7B6F72"/>
</g>
<defs>
<clipPath id="clip0_101_1433">
<rect width="30.0571" height="17.625" fill="white"/>
</clipPath>
</defs>
</svg>
